<?xml version="1.0" encoding="UTF-8" standalone="no"?>
<!-- Created with Inkscape (http://www.inkscape.org/) -->

<svg
   xmlns:dc="http://purl.org/dc/elements/1.1/"
   xmlns:cc="http://creativecommons.org/ns#"
   xmlns:rdf="http://www.w3.org/1999/02/22-rdf-syntax-ns#"
   xmlns:svg="http://www.w3.org/2000/svg"
   xmlns="http://www.w3.org/2000/svg"
   xmlns:sodipodi="http://sodipodi.sourceforge.net/DTD/sodipodi-0.dtd"
   xmlns:inkscape="http://www.inkscape.org/namespaces/inkscape"
   width="400"
   height="480"
   id="svg4463"
   version="1.1"
   inkscape:version="0.48.5 r10040"
   sodipodi:docname="xi.svg">
  <title
     id="title5521">Xi </title>
  <defs
     id="defs4465">
    <inkscape:path-effect
       effect="skeletal"
       id="path-effect5353"
       is_visible="true"
       pattern="M 0,0 0,10 10,5 z"
       copytype="single_stretched"
       prop_scale="1"
       scale_y_rel="false"
       spacing="0"
       normal_offset="0"
       tang_offset="0"
       prop_units="false"
       vertical_pattern="false"
       fuse_tolerance="0" />
  </defs>
  <sodipodi:namedview
     id="base"
     pagecolor="#ffffff"
     bordercolor="#666666"
     borderopacity="1.0"
     inkscape:pageopacity="0.0"
     inkscape:pageshadow="2"
     inkscape:zoom="0.54781349"
     inkscape:cx="-445.9136"
     inkscape:cy="125.84826"
     inkscape:current-layer="layer1"
     inkscape:document-units="px"
     showgrid="false"
     inkscape:window-width="1366"
     inkscape:window-height="706"
     inkscape:window-x="-8"
     inkscape:window-y="-8"
     inkscape:window-maximized="1" />
  <metadata
     id="metadata4468">
    <rdf:RDF>
      <cc:Work
         rdf:about="">
        <dc:format>image/svg+xml</dc:format>
        <dc:type
           rdf:resource="http://purl.org/dc/dcmitype/StillImage" />
        <cc:license
           rdf:resource="http://creativecommons.org/licenses/publicdomain/" />
        <dc:title>Xi </dc:title>
        <dc:subject>
          <rdf:Bag>
            <rdf:li>Xi Jinping</rdf:li>
            <rdf:li>Chinese President</rdf:li>
            <rdf:li>Asian Leader</rdf:li>
            <rdf:li>communist party of china</rdf:li>
            <rdf:li></rdf:li>
          </rdf:Bag>
        </dc:subject>
        <dc:date>2015-02-19</dc:date>
        <dc:creator>
          <cc:Agent>
            <dc:title>srinivasbala</dc:title>
          </cc:Agent>
        </dc:creator>
        <dc:description>Mr. Xi as the president of china is known for his tough measures against corruption,  far sighted market reforms and strengthening of law and legal institutions.</dc:description>
      </cc:Work>
      <cc:License
         rdf:about="http://creativecommons.org/licenses/publicdomain/">
        <cc:permits
           rdf:resource="http://creativecommons.org/ns#Reproduction" />
        <cc:permits
           rdf:resource="http://creativecommons.org/ns#Distribution" />
        <cc:permits
           rdf:resource="http://creativecommons.org/ns#DerivativeWorks" />
      </cc:License>
    </rdf:RDF>
  </metadata>
  <g
     id="layer1"
     inkscape:label="Layer 1"
     inkscape:groupmode="layer">
    <path
       style="fill:#000000"
       d="m 25.547958,10.820066 0,19.529625 c 0.43697,10.741294 1.37597,53.193401 2.11019,94.338029 0.73421,41.14461 1.68891,82.56219 2.1102,92.06232 l 0.74477,17.2953 6.20645,-0.0828 c 3.39242,-0.0332 6.46298,-0.42301 6.82709,-0.8689 0.36411,-0.44591 3.34321,-0.37131 6.62021,0.1655 3.27701,0.53681 17.96754,-1.53741 17.87458,-1.52829 -0.72619,0.0712 -35.0455,5.07679 -42.49349,6.4107 l 0,219.95654 154.044062,0.0827 205.55758,0.16551 0,-447.526334 -159.00922,0 z m 166.504822,19.1435 26.26748,-1.35168 c 11.35175,0.261677 17.21255,2.221172 17.21255,5.751309 0,0.960137 0.59582,1.401722 1.32404,0.951655 0.72822,-0.450067 1.32404,0.105977 1.32404,1.24129 0,2.887793 -2.3317,2.577507 -4.30314,-0.579269 -0.90956,-1.456446 -2.65107,-2.648084 -3.88937,-2.648084 -1.2383,0 -2.65533,-0.656507 -3.1446,-1.448172 -0.48927,-0.791665 -1.96864,-1.167507 -3.26873,-0.827526 -1.30009,0.339981 -32.17401,-1.241855 -31.94252,-1.187826 z m 1.75719,-0.0467 c -0.0889,0.004 -0.14501,-0.004 -0.14501,-0.02212 0,-0.0364 0.0973,-0.08529 0.21627,-0.110597 1.3687,-0.704195 1.04974,-0.06929 0.27525,0.09093 -0.13489,0.02414 -0.25762,0.03787 -0.34651,0.04177 z M 147.48405,41.23166 c 0.45224,-0.731743 -14.35338,8.299021 -14.48171,8.367251 -0.1283,0.06823 -0.23333,0.101713 -0.23333,0.07511 0,-0.0266 0.0568,-0.07048 0.1279,-0.09749 0.0711,-0.02701 11.22947,-9.433902 12.72526,-10.827456 31.52001,-10.007645 0.85643,5.012124 1.86188,2.482581 z m 97.81357,-6.123692 c 0.47479,-0.07983 0.82753,0.20775 0.82753,0.78615 0,0.7712 -0.59582,1.406795 -1.32405,1.406795 -0.72822,0 -1.32404,-0.258134 -1.32404,-0.579269 0,-0.321134 0.59582,-0.956728 1.32404,-1.406795 0.18206,-0.112517 0.33826,-0.180273 0.49652,-0.206881 z m -112.99218,14.93046 c 0.0265,0 0.0625,0.02301 0.08,0.05115 0.0173,0.02814 -0.005,0.05115 -0.0495,0.05115 -0.0438,0 -0.0782,-0.02301 -0.0782,-0.05115 0,-0.02812 0.0215,-0.05115 0.0479,-0.05115 z m -12.83322,9.316066 c 0.0794,-0.01152 -0.092,0.214867 -0.49652,0.703397 -0.72563,0.876469 -1.28266,2.540008 -1.28266,3.72387 0,1.183862 -1.61042,3.613479 -3.55837,5.378922 l -10.80924,22.563019 c 2.63234,-8.210612 6.11056,-16.421224 10.3541,-24.631835 1.69613,-2.912894 3.86358,-6.038343 4.84103,-6.951223 0.54481,-0.508824 0.87228,-0.774673 0.95166,-0.78615 z m 115.81233,6.08232 -0.33101,3.185977 c -0.18756,1.75922 -1.0164,3.871368 -1.86194,4.716901 -0.84553,0.845532 -1.53092,2.322039 -1.53092,3.268729 0,0.946691 -0.59582,1.737806 -1.32404,1.737806 -0.72823,0 -1.32404,0.817391 -1.32404,1.820558 0,1.003169 -0.82799,2.486348 -1.82056,3.310106 -1.46557,1.216314 -1.7126,0.81478 -1.24129,-2.151569 0.81035,-5.100227 3.18673,-9.769485 6.57883,-13.074918 z m -12.99217,26.149837 c 0.72823,0 1.32405,0.258134 1.32405,0.579268 0,0.321135 -0.59582,0.956728 -1.32405,1.406795 -0.72822,0.450067 -1.32404,0.191932 -1.32404,-0.579268 0,-0.771201 0.59582,-1.406795 1.32404,-1.406795 z m -93.1381,6.620212 c 0.65561,-0.01633 1.40959,0 2.23432,0 5.51679,0 9.05124,1.010893 15.76438,4.510017 9.05303,4.71876 9.4096,4.73146 24.94992,2.23432 7.43551,-1.19479 9.81464,-1.02596 15.88851,0.99304 7.40235,2.46063 24.47025,2.52014 22.96386,0.0827 -1.34221,-2.17174 5.66895,-1.26134 8.60628,1.11716 2.52795,2.04703 2.93288,4.02091 3.55836,16.75742 0.58547,11.92185 1.19811,15.16253 3.55836,18.53659 1.57281,2.24838 3.36986,4.28996 3.97213,4.55139 2.09995,0.91158 9.5176,8.72163 11.0061,11.58538 0.8249,1.58695 1.21299,4.36512 0.86891,6.16507 -0.49097,2.56832 0.0226,3.43321 2.39982,4.05488 3.45075,0.90239 6.4796,-1.04347 6.53746,-4.22039 0.0534,-2.92931 14.09326,-17.8158 15.80576,-16.75741 0.77173,0.47696 1.36542,-0.32362 1.36542,-1.86193 0,-3.16101 3.6542,-3.72979 4.79965,-0.74478 0.41918,1.09234 1.56017,1.98607 2.52396,1.98607 0.96377,0 1.91887,1.34059 2.15157,2.97909 0.2327,1.6385 1.34886,2.97248 2.4412,2.9791 3.36661,0.0185 2.54469,16.75079 -1.32404,27.06011 -4.24667,11.31649 -9.4829,17.29531 -15.18511,17.29531 l -4.34452,0 -0.8689,8.44077 c -0.47745,4.66014 -1.63342,11.12358 -2.60671,14.35758 -1.59946,5.3146 -1.56232,6.21478 0.66202,9.2683 2.28965,3.14318 7.69156,21.49981 7.73737,26.31534 0.0106,1.17474 -2.87214,4.74966 -6.41333,7.94426 -3.54119,3.19459 -13.3722,12.054 -21.8467,19.69513 -11.40387,10.28244 -15.39199,14.72889 -15.39199,17.04704 0,2.57492 -0.52997,2.98108 -2.97909,2.39983 -1.63851,-0.38887 -8.87636,-1.39362 -16.05402,-2.2757 -9.9786,-1.22623 -13.25074,-1.27113 -13.9852,-0.0827 -0.5283,0.85481 -4.91589,1.80679 -9.72343,2.06881 -5.17458,0.28204 -9.95679,1.30871 -11.75088,2.56534 -4.00149,2.80276 -4.6733,2.72543 -5.5858,-0.91028 -0.4234,-1.68699 -2.3238,-3.90876 -4.22039,-4.92379 -4.84127,-2.59096 -6.21336,-5.74592 -4.34451,-9.84756 0.84846,-1.86217 2.33989,-3.35148 3.35148,-3.35148 2.61518,0 9.50521,3.67962 15.14374,8.10976 8.35632,6.5655 13.47141,5.60898 37.5697,-6.95123 11.32241,-5.90133 21.315,-11.41266 22.21909,-12.24739 0.90409,-0.83473 2.44325,-1.66098 3.39285,-1.86193 3.02471,-0.64004 15.71472,-10.6493 18.37109,-14.48172 3.74564,-5.40393 4.41425,-7.9603 3.51699,-13.57143 -0.65671,-4.10689 -1.26488,-4.92072 -3.31011,-4.38589 -2.5947,0.67853 -3.07393,2.84767 -2.56533,11.29574 0.16784,2.78775 -0.33315,4.96515 -1.11716,4.96515 -0.76798,0 -1.04296,0.88571 -0.62064,1.98607 0.48727,1.26983 0.10936,1.82285 -1.03441,1.53092 -0.99137,-0.25301 -1.33232,-0.18131 -0.78615,0.12406 1.86482,1.04291 0.98264,3.24072 -0.99303,2.48258 -1.08361,-0.41581 -1.82839,-0.12247 -1.65506,0.66203 0.17332,0.78444 -1.048,1.66081 -2.73083,1.94468 -1.68285,0.28389 -2.74407,0.003 -2.35846,-0.62064 -1.1783,-2.77727 -14.06327,2.99828 -6.57876,-5.4203 3.29102,-3.63656 1.37652,-6.057 -2.68947,-3.39286 -1.75312,1.14869 -3.18597,1.44841 -3.18597,0.7034 0,-0.74501 0.50221,-1.32404 1.11716,-1.32404 2.36883,0 8.42063,-6.39565 7.48911,-7.90288 -0.58503,-0.9466 0.1,-1.81685 1.69643,-2.23432 1.81242,-0.47396 2.40178,-1.4795 1.94469,-3.22736 -0.45088,-1.72415 0.0331,-2.52395 1.48955,-2.52395 1.17727,0 2.18308,-1.04269 2.23432,-2.31708 0.079,-1.96752 0.25335,-1.91758 1.15854,0.33101 0.99499,2.47169 1.09282,2.4276 1.69642,-0.66202 0.6003,-3.07262 0.66016,-3.09638 0.82753,-0.33101 0.0992,1.6385 0.78883,2.9791 1.53093,2.9791 0.80022,0 1.01268,-1.48166 0.49651,-3.64112 -1.33483,-5.5846 -1.89631,-5.98684 -4.7169,-3.43423 -1.73464,1.56982 -2.47753,1.76245 -2.19294,0.57926 0.23593,-0.98087 -0.28964,-2.06606 -1.19992,-2.39982 -0.92472,-0.33908 -1.65505,0.40182 -1.65505,1.69643 0,2.08189 -1.83098,1.61733 -2.11019,-0.5379 -0.3361,-2.59438 -2.31955,-5.39605 -3.35149,-4.75827 -0.65191,0.4029 -1.15853,0.16513 -1.15853,-0.5379 0,-0.70304 -1.0968,-1.00277 -2.39983,-0.66202 -2.28103,0.5965 -8.01958,-4.14507 -6.66159,-5.50305 12.98323,-3.93693 3.86626,-1.25275 3.76525,-6.04094 0,-1.49943 -0.52158,-2.4369 -1.11716,-2.06882 -0.59557,0.36809 -1.91609,-0.48587 -2.93772,-1.90331 -2.20281,-3.05623 -5.21342,-3.38724 -5.21342,-0.57927 0,1.09234 -0.56645,1.98607 -1.24129,1.98607 -0.67482,0 -1.46619,0.74477 -1.77918,1.65505 -0.31306,0.91028 -0.44661,0.68755 -0.28964,-0.45514 0.2157,-1.57017 -0.89858,-2.05531 -4.51001,-1.98606 -2.62823,0.0503 -5.1221,0.5877 -5.54443,1.15853 -1.31443,1.7766 -5.33125,-0.60796 -6.57884,-3.88937 -0.80852,-2.12657 -2.2418,-3.10322 -4.46864,-3.10322 -1.80239,0 -3.76216,-0.81722 -4.34452,-1.77919 -2.36692,-3.90984 -15.32695,-12.78528 -18.66072,-12.78528 l -3.51699,0 4.26177,3.88937 c 2.34695,2.14363 4.30313,5.0287 4.30313,6.41333 0,3.46016 -3.95392,6.70064 -9.39242,7.73738 -2.501,0.47676 -6.21592,1.69447 -8.27527,2.73083 -3.35061,1.68621 -4.29106,1.61629 -8.89591,-0.66202 -3.44617,-1.70502 -5.34386,-2.05729 -5.75131,-1.07578 -0.44211,1.06551 -0.90158,1.05864 -1.69642,0 -0.60161,-0.80126 -2.41638,-2.15761 -4.05488,-3.02047 -3.70264,-1.94987 -3.82103,-6.02673 -0.33102,-11.75088 3.24973,-5.33005 3.33006,-6.93514 0.33102,-6.90985 -2.51845,0.0212 -3.95492,0.76045 -16.67466,8.3994 l -8.48215,5.08929 1.11716,4.84103 c 2.42109,10.41793 0.63826,10.65009 -3.02047,0.41376 -2.40847,-6.73838 -2.95775,-4.35633 -1.15854,4.96516 1.12094,5.80733 0.68086,9.39242 -1.15854,9.39242 -0.5229,0 -1.04135,-1.93641 -1.15853,-4.30313 -1.29815,-26.23146 -1.36588,-36.25271 -0.20688,-44.68643 0.75057,-5.46168 1.94866,-14.99478 2.64808,-21.18468 0.69943,-6.1899 2.22598,-14.58534 3.88938,-20.52266 1.66339,-5.93732 3.48936,-12.5453 4.59277,-16.55053 1.10341,-4.00523 3.17308,-9.21865 4.63415,-11.58538 2.15595,-3.492314 2.98259,-4.188863 7.57186,-4.303134 z m -25.1843,-5.006536 c 0.0798,0.06235 0.14913,0.342167 0.24097,0.819273 0.36758,1.908424 0.36758,5.031299 0,6.93972 -0.36758,1.90843 -0.67471,0.34699 -0.67471,-3.469859 0,-2.862635 0.19409,-4.476181 0.43374,-4.289134 z m -0.81927,13.542103 c 0.84819,0 1.54216,0.69397 1.54216,1.54216 0,0.84819 -0.69397,1.54216 -1.54216,1.54216 -0.84818,0 -1.54217,-0.69397 -1.54217,-1.54216 0,-0.84819 0.69399,-1.54216 1.54217,-1.54216 z m 0,13.87944 c 0.84819,0 1.54216,0.30066 1.54216,0.6747 0,0.37403 -0.69397,1.11433 -1.54216,1.63854 -0.84818,0.52422 -1.54217,0.22356 -1.54217,-0.67469 0,-0.89823 0.69399,-1.63855 1.54217,-1.63855 z m 33.40993,1.58327 c -0.56864,-0.0255 0.0258,0.44222 1.5723,1.69643 1.41357,1.14638 4.92504,2.11019 7.82012,2.11019 5.72324,0 5.50895,-1.90253 -0.24825,-2.19295 -1.94194,-0.098 -5.00654,-0.57353 -6.8271,-1.07578 -1.19508,-0.3297 -1.97589,-0.52259 -2.31707,-0.53789 z m -13.9852,10.01307 c -1.84311,0.0563 -3.49869,2.01251 -2.31707,4.22038 0.83837,1.56653 0.76568,2.87544 -0.16551,3.80662 -1.83644,1.83645 -0.17072,4.45557 2.64809,4.17901 4.49467,-0.44098 6.58507,0.17617 10.09582,2.93772 3.98567,3.13514 2.77174,5.05195 -3.18598,5.08929 -3.12463,0.0196 -3.14666,0.0792 -0.66202,1.94469 2.32656,1.74675 1.94792,1.87368 -4.34451,1.15853 -4.53233,-0.51512 -6.95122,-0.2996 -6.95122,0.62065 0,0.77627 -1.04269,1.62489 -2.31708,1.90331 -2.50204,0.54662 9.20048,4.38498 18.95036,6.20645 9.74478,1.82053 8.29262,2.69842 -3.02047,1.86193 -8.42618,-0.62303 -10.54203,-0.37914 -10.59234,1.07579 -0.0347,1.00136 -0.48474,2.79246 -0.99304,4.0135 -0.66485,1.59714 0.0772,2.76894 2.68947,4.13763 1.9971,1.04639 5.97956,1.90331 8.81315,1.90331 4.15585,0 4.99336,-0.41932 4.34452,-2.11019 -0.44239,-1.15292 -0.43875,-1.68002 0.0413,-1.19991 0.48011,0.48012 2.09567,-0.25096 3.55836,-1.61368 1.9884,-1.85247 3.40258,-2.18557 5.66856,-1.32404 2.56491,0.97517 3.27271,0.61303 4.46864,-2.39983 0.77721,-1.95803 1.64575,-6.64135 1.94469,-10.38546 0.50682,-6.34784 0.21615,-7.09934 -4.01351,-11.08885 -2.49473,-2.3531 -4.20665,-4.60649 -3.80662,-5.00654 0.40005,-0.40004 -3.25727,-2.07693 -8.15113,-3.72386 -4.89385,-1.64693 -9.55989,-3.85135 -10.34408,-4.92379 -0.67168,-0.91857 -1.52068,-1.30824 -2.35845,-1.28266 z m 154.45782,3.84799 c 1.74889,-0.006 3.02507,1.79632 4.55139,5.87544 0.6723,1.7967 0.78586,4.46037 0.20689,5.91682 -1.01455,2.55213 -1.0689,2.51851 -1.15854,-0.24826 -0.16131,-4.97596 -1.61183,-7.03398 -4.8824,-7.03398 -3.79672,0 -4.14353,-2.06749 -0.66203,-3.93075 0.70491,-0.37726 1.36173,-0.57723 1.94469,-0.57927 z m -104.88898,9.02004 c -3.43461,0.0442 -4.73962,0.50286 -5.62718,1.5723 -1.15067,1.3865 -2.94151,1.83634 -5.50305,1.32405 -3.3984,-0.67969 -3.69057,-0.47494 -2.89635,2.02744 0.58107,1.83076 0.38942,2.47641 -0.53789,1.90331 -0.91561,-0.56589 -0.81661,1.16523 0.28964,4.84103 0.94159,3.12868 1.45949,6.42073 1.15853,7.32361 -0.30096,0.90289 0.0613,1.65505 0.78615,1.65505 0.7249,0 1.74255,2.38538 2.23433,5.29617 0.80912,4.78911 1.19347,5.1972 4.09625,4.46864 2.31502,-0.58103 4.57499,0.24161 8.10976,2.93772 2.69387,2.05472 7.27747,4.07867 10.21995,4.51002 4.12417,0.60458 5.91143,0.22653 7.73738,-1.61368 1.30275,-1.31293 3.0902,-2.374 3.97212,-2.39982 0.88191,-0.0258 0.17646,-0.85147 -1.5723,-1.82056 -2.36633,-1.31135 -2.70496,-1.96562 -1.32404,-2.56533 1.04283,-0.45289 0.41217,-0.76709 -1.44817,-0.7034 -8.71322,0.298 -12.11705,-0.22668 -11.58537,-1.82056 0.63511,-1.90395 12.36936,-1.73939 14.72997,0.20688 1.73378,1.42947 14.06795,0.26876 14.06795,-1.32404 0,-0.60544 2.53223,-1.83435 5.62718,-2.73084 4.53056,-1.31234 5.03096,-1.74085 2.56533,-2.15157 -1.68433,-0.28056 -5.99126,0.53802 -9.55793,1.82056 l -6.49608,2.31708 -7.19948,-3.64112 c -3.95922,-2.00318 -7.99375,-3.50429 -8.97866,-3.35148 -0.98492,0.15281 -3.84253,-0.50268 -6.33058,-1.44817 l -4.51002,-1.69643 3.02047,-2.44121 c 3.17658,-2.57223 11.28955,-3.35226 12.61978,-1.19991 0.43041,0.69647 1.57188,0.9605 2.56533,0.57927 0.99346,-0.38122 2.6139,0.46736 3.59974,1.86193 2.37353,3.35762 11.13329,5.0461 12.16464,2.35845 0.40791,-1.063 -0.45452,-3.48448 -1.94469,-5.37892 -2.14428,-2.72603 -3.12802,-3.11894 -4.59277,-1.90331 -1.24206,1.03087 -1.82056,1.07572 -1.82056,0.12406 0,-0.77987 -1.34059,-2.84645 -2.97909,-4.59277 -2.60988,-2.78164 -4.56514,-3.25248 -15.76438,-3.97213 -3.98879,-0.25632 -6.83515,-0.39896 -8.89591,-0.37238 z m 92.68297,8.73041 c -2.37704,0.13629 -2.81359,0.87109 -2.81359,3.39286 0,1.8955 -0.59181,3.01787 -1.32405,2.56533 -0.75054,-0.46387 -0.99004,0.063 -0.53789,1.24129 0.43369,1.13016 0.16265,2.06881 -0.62064,2.06881 -1.69179,0 -0.52519,3.70728 2.11019,6.78572 1.262,1.47416 1.40636,2.47396 0.45514,3.06185 -0.77567,0.47938 -1.4068,2.0779 -1.4068,3.51699 0,2.20624 0.41524,2.3949 2.64809,1.19991 1.45644,-0.77946 2.64808,-1.97964 2.64808,-2.64808 0,-0.66843 2.08537,-2.18339 4.63415,-3.39286 3.57899,-1.69835 4.60668,-3.01438 4.59277,-5.70994 -0.0286,-5.52893 -1.44612,-9.4338 -3.43423,-9.4338 -1.0074,0 -1.82056,-0.59582 -1.82056,-1.32404 0,-0.72822 -1.78746,-1.32404 -3.97213,-1.32404 -0.42233,0 -0.81896,-0.0195 -1.15853,0 z m 0.57926,6.70296 c 1.15739,0.12287 2.42411,0.95926 3.76525,2.44121 2.20242,2.4337 2.1209,2.489 -2.48258,2.35845 -5.64404,-0.15999 -6.48834,-0.7195 -4.51002,-3.10323 1.02162,-1.23099 2.06997,-1.81935 3.22735,-1.69643 z m -63.05751,5.21342 c -0.68525,0 -1.24129,0.59582 -1.24129,1.32404 0,0.72823 0.89212,1.32404 2.02744,1.32404 1.13534,0 1.73273,-0.59581 1.28266,-1.32404 -0.45007,-0.72822 -1.38357,-1.32404 -2.06881,-1.32404 z m -54.86501,0.28963 c 0.36014,-0.13688 0.61171,0.3737 0.62064,1.36542 0.0119,1.28802 -0.96626,2.31708 -2.19294,2.31708 -1.2137,0 -1.6521,-0.44687 -0.99303,-0.99304 0.65907,-0.54616 1.64946,-1.58885 2.19294,-2.31707 0.14099,-0.1889 0.25234,-0.32676 0.37239,-0.37239 z m 17.70907,3.59974 c 0.27612,-0.0286 0.61517,0.0773 0.95165,0.41377 0.43997,0.43998 0.55491,1.56265 0.24826,2.48258 -0.44848,1.3455 -0.77949,1.34975 -1.61368,0 -0.82821,-1.34009 -0.41461,-2.8105 0.41377,-2.89635 z m 28.54966,37.15594 c 0.32113,0 0.95673,0.59582 1.40679,1.32405 0.45007,0.72822 0.15056,1.32404 -0.62064,1.32404 -0.7712,0 -1.36542,-0.59582 -1.36542,-1.32404 0,-0.72823 0.25814,-1.32405 0.57927,-1.32405 z m -56.47868,7.94426 c 0.13951,-0.0219 0.26013,0 0.41376,0 0.72822,0 0.93356,0.63269 0.45514,1.40679 -1.17251,1.89716 3.16737,6.50133 5.33755,5.66856 0.95025,-0.36466 2.12594,-0.0331 2.6067,0.74477 0.55426,0.8968 -0.75355,1.44817 -3.59974,1.44817 -3.38523,0 -4.92134,-0.78473 -6.20645,-3.18597 -1.60718,-3.00304 -1.09959,-5.75405 0.99304,-6.08232 z m 39.63852,1.90331 c 2.37071,-0.15302 4.09481,1.23353 4.63414,4.05488 0.34022,1.77988 0.33985,3.54952 -0.0413,3.93075 -0.38123,0.38122 -4.4907,0.7034 -9.10279,0.7034 -6.57117,0 -8.35802,-0.42973 -8.35802,-1.98607 0,-1.09233 0.94822,-1.98606 2.1102,-1.98606 1.16198,0 3.84363,-1.26653 5.95819,-2.77221 1.73885,-1.23817 3.37723,-1.85288 4.79965,-1.94469 z m -18.08146,7.53049 c 0.45997,-0.0189 1.01165,0.0571 1.48955,0.24826 1.05623,0.42266 0.71492,0.72259 -0.82753,0.78615 -1.39575,0.0575 -2.17777,-0.26343 -1.7378,-0.7034 0.21999,-0.21996 0.61581,-0.31208 1.07578,-0.33101 z m -65.374592,5.54443 c 1.22867,-1.74244 6.17288,-3.17347 12.330142,-3.59974 2.77774,-0.19231 4.54532,0.46983 5.37893,2.02744 2.05404,3.838 1.44393,4.68095 -3.06185,4.26176 -3.72087,-0.34619 -3.88507,-0.25892 -1.03441,0.62064 1.81321,0.55948 2.70694,1.30833 1.98606,1.69643 -2.15215,1.15863 -10.132962,1.33816 -9.433802,0.20688 0.35545,-0.57515 -1.76936,-0.81898 -4.7169,-0.53789 -3.25799,0.3107 -5.07687,-0.003 -4.59277,-0.78615 0.4683,-0.75764 -0.51821,-1.02963 -2.44121,-0.66202 -1.89817,0.36287 -17.83319,-1.2983 -17.83319,-1.35309 0,-0.0519 15.45819,-0.96398 16.55053,-0.96398 2.40302,0 6.23571,-0.0132 6.86847,-0.91028 z m -23.53785,1.64713 c 0.0767,0.003 0.0939,0.0776 0.0555,0.22448 -0.0376,0.14387 -0.11082,0.1619 -0.60216,0.14791 l -0.5599,-0.0159 0.49123,-0.0316 c 0.37375,-0.0241 0.48253,-0.0579 0.44897,-0.14526 -0.0244,-0.0634 0.007,-0.13458 0.0687,-0.15847 0.0385,-0.0148 0.0722,-0.0221 0.0977,-0.0212 z m -1.43145,0.13468 c 0.0216,0 0.0967,0.0571 0.1664,0.12672 0.11267,0.11267 0.10367,0.12671 -0.0871,0.12671 -0.15609,0 -0.20175,-0.0346 -0.16637,-0.12671 0.0267,-0.0698 0.0655,-0.12672 0.0871,-0.12672 z m 93.281612,1.03178 c 0.62766,-0.0861 1.28954,0.19474 1.65505,0.78615 1.21608,1.96766 0.22146,2.67859 -1.90331,1.36542 -1.13832,-0.70353 -1.26197,-1.3949 -0.37238,-1.94469 0.18891,-0.11678 0.41142,-0.17819 0.62064,-0.20688 z m -24.16377,2.60671 c 1.55947,0.17736 3.91606,3.72425 4.30313,7.40636 0.26794,2.54878 1.32798,6.12369 2.35846,7.94425 1.03048,1.82056 2.03255,3.52487 2.19294,3.80662 0.32843,0.57696 6.85972,1.24889 17.33668,1.77919 5.63841,0.28538 7.44407,-0.12605 8.89591,-2.1102 1.05391,-1.44026 2.65914,-2.15262 3.848,-1.69643 1.56654,0.60115 2.06881,-0.14052 2.06881,-3.1446 0,-2.23663 -0.72443,-3.93075 -1.65505,-3.93075 -0.8995,0 0.5927,-1.19164 3.31011,-2.64808 4.92308,-2.63861 11.62494,-3.92604 7.77875,-1.48955 -1.47897,0.93689 -1.41644,1.39382 0.45514,2.4412 1.81956,1.01828 2.02525,1.8474 0.91028,3.93075 -1.91047,3.56973 -0.51299,8.92927 1.82055,6.9926 1.18584,-0.9842 1.96907,-1.00615 2.56534,-0.0413 0.47191,0.76359 0.15825,1.4068 -0.66203,1.4068 -0.87719,0 -1.14501,1.04356 -0.66202,2.56533 0.63981,2.01587 -0.39869,3.35636 -4.7169,6.08232 -4.36706,2.7568 -7.29122,3.51738 -13.73694,3.59974 -4.49924,0.0575 -8.82549,-0.28234 -9.64068,-0.78615 -0.81519,-0.50382 -1.85967,-0.32634 -2.31707,0.41376 -1.06834,1.72853 -2.94082,1.73564 -4.01351,0 -0.46188,-0.74734 -2.73597,-1.25868 -5.04791,-1.11716 -6.71793,0.41121 -9.22957,-1.05689 -13.81969,-8.06838 -3.9362,-6.0126 -8.06181,-18.38229 -4.42727,-13.2818 0.88719,1.24504 1.43493,1.36867 1.44817,0.37239 0.0106,-0.8741 -1.0013,-2.174 -2.2757,-2.89635 -2.13553,-1.21046 -2.16066,-1.46599 -0.1655,-3.06184 1.19062,-0.95235 2.37386,-2.45737 2.64808,-3.39286 0.23644,-0.80657 0.6801,-1.13491 1.19992,-1.07579 z m 50.76875,1.24129 c 0.47479,-0.0798 0.82752,0.20774 0.82752,0.78615 0,0.7712 -0.59582,1.40679 -1.32404,1.40679 -0.72822,0 -1.32404,-0.25813 -1.32404,-0.57927 0,-0.32113 0.59582,-0.95672 1.32404,-1.40679 0.18206,-0.11255 0.33825,-0.18027 0.49652,-0.20688 z m -32.60455,2.77221 c 1.23052,-0.0388 2.78932,-0.0164 4.7169,0 6.27043,0.0534 9.55195,0.53944 8.77179,1.32404 -1.77725,1.78735 -14.29487,1.85316 -16.71604,0.0828 -1.1773,-0.86085 -0.46418,-1.29034 3.22735,-1.40679 z m 17.62632,7.53049 c 0.45997,-0.0189 1.01165,0.0571 1.48955,0.24826 1.05622,0.42266 0.71491,0.72259 -0.82753,0.78615 -1.39575,0.0575 -2.17777,-0.26343 -1.73781,-0.7034 0.21999,-0.21996 0.61582,-0.31208 1.07579,-0.33101 z"
       id="path5222"
       inkscape:connector-curvature="0"
       sodipodi:nodetypes="ccsccccsscccccccccssssssscccsccscsssccssssssscsssscscccsscsssssssccssssssssssssssccsscssssscssccsssssssssssssssssssssssscssscsccssssssscssssssscsssssccsssscscsssssccsssscsssccccssscsssssssssssssssssssssssssssssssssssssssssssccssssscssssssssssssssssssssssscsscssssscccscccccssscsssscsssssssssscssscssssscssscscscsscccsscssscssscsssssccsscsssssssccssccsscsssscccscsscssscssssscsssssssscsssscsssssscsssscsssscssssssscsssscscssscscscs"
       inkscape:export-filename="C:\Users\fastalloy\Desktop\rect3167.png"
       inkscape:export-xdpi="72.49469"
       inkscape:export-ydpi="72.49469" />
  </g>
</svg>
